<svg version="1.1" xmlns="http://www.w3.org/2000/svg" xmlns:xlink="http://www.w3.org/1999/xlink" width="800" height="800" viewBox="0,0,800,800"><g transform="translate(272,332)"><g data-paper-data="{&quot;isPaintingLayer&quot;:true}" fill-rule="nonzero" stroke="none" stroke-width="1" stroke-linecap="butt" stroke-linejoin="miter" stroke-miterlimit="10" stroke-dasharray="" stroke-dashoffset="0" style="mix-blend-mode: normal"><path d="M-272,68c0,-220.9139 179.0861,-400 400,-400c220.9139,0 400,179.0861 400,400c0,220.9139 -179.0861,400 -400,400c-220.9139,0 -400,-179.0861 -400,-400z" fill="#f2f2f2"/><path d="M252.375,-41.6875h2.34375c2.89063,0.23438 5.78125,1.64063 7.57813,3.90625c2.65625,3.28125 3.35937,7.65625 3.59375,11.79688c0.625,12.57813 -2.10938,25.07813 -5.70312,37.10938c-4.60937,15.9375 -11.09375,31.25 -16.40625,46.95313c-0.9375,2.73438 -1.875,5.54688 -2.57812,8.35938c-1.17187,4.6875 -1.01562,9.60938 -1.17187,14.45312c-0.15625,4.53125 0.15625,9.0625 1.01563,13.51562c0.46875,2.42188 1.48438,5 3.35938,6.71875c1.71875,1.5625 4.21875,2.26562 6.48437,1.5625c3.04688,-0.9375 5.46875,-3.28125 7.65625,-5.54688c3.04688,-3.35937 5.9375,-6.79687 8.04688,-10.78125c2.96875,-5.3125 4.6875,-11.17187 5.54688,-17.1875c1.17188,-9.0625 2.10938,-18.28125 5.39063,-26.875c1.25,-3.28125 2.8125,-6.64062 5.78125,-8.67187c3.98438,-2.8125 10,-1.64062 13.04688,2.10938c1.48438,1.875 1.875,4.29688 1.875,6.5625c-0.15625,3.04687 -0.78125,6.09375 -1.79687,8.98438c-3.51562,10.3125 -5.54687,21.17187 -5.15625,32.10937c0.07813,2.5 0.3125,5.15625 1.64063,7.42188c1.09375,1.875 2.96875,3.35937 5.15625,3.35937c2.5,0 4.6875,-1.48437 6.25,-3.28125c2.42188,-2.73437 4.375,-5.85937 5.9375,-9.14063c3.125,-6.64062 4.60938,-13.90625 5.9375,-21.09375c1.09375,-6.09375 2.1875,-12.1875 3.90625,-18.125c0.9375,-3.04687 2.10938,-6.09375 4.375,-8.4375c1.48438,-1.64062 3.75,-2.26562 5.85938,-2.26562c2.1875,0.07813 4.21875,1.32812 5.70312,2.96875c2.03125,2.26562 2.42188,5.39062 2.1875,8.28125c-2.1875,17.26563 -4.60937,34.53125 -6.5625,51.79688c-1.40625,10.78125 -2.65625,21.5625 -3.59375,32.34375c-0.07812,1.17188 1.32813,1.875 2.10938,1.09375c5.625,-5.39062 11.17188,-11.01563 15.39063,-17.57812c1.95313,-2.96875 3.35937,-6.17187 5.23438,-9.14063c0.78125,-1.32813 1.71875,-2.65625 3.20313,-3.125c2.26563,-1.09375 5.15625,-0.78125 7.10938,0.78125c1.48438,1.09375 2.26563,2.89063 2.5,4.6875v2.10938c-0.46875,3.59375 -2.57812,6.64063 -4.14062,9.76563c-4.29687,8.59375 -10.23437,16.40625 -17.65625,22.57812c-5.3125,4.53125 -11.5625,7.96875 -18.125,10.3125c-0.39062,0.15625 -1.01562,0.23437 -1.09375,0.78125c-2.42187,9.92188 -7.8125,19.0625 -15.07812,26.17188c-8.04687,7.96875 -18.4375,13.4375 -29.45312,16.01563c-6.01563,1.32813 -12.34375,1.875 -18.4375,0.78125c-6.25,-1.17187 -12.34375,-4.0625 -16.79687,-8.59375c-4.0625,-4.0625 -6.79688,-9.45312 -7.26562,-15.23437c-0.46875,-5.23438 0.85938,-10.54687 3.35937,-15.15625c2.89063,-5.23437 7.26562,-9.60937 12.42187,-12.65625c4.92188,-2.96875 10.54688,-4.375 16.09375,-5.07812c6.32813,-0.70312 12.8125,-0.70312 19.21875,-0.15625c3.98438,0.3125 7.96875,0.70313 11.95312,1.01562c2.1875,0.15625 4.60938,0.9375 6.71875,-0.15625c1.48437,-0.70312 1.95313,-2.5 2.1875,-3.98438c0.9375,-7.03125 2.34375,-14.14062 1.48438,-21.32812c-0.15625,-0.9375 -0.39062,-2.34375 -1.5625,-2.42187c-1.40625,0.625 -2.10937,2.10938 -2.89062,3.35937c-2.42187,4.6875 -6.95312,8.28125 -12.1875,9.29688c-5.23438,1.01562 -10.9375,-1.64063 -13.35938,-6.32813c-1.17187,-1.95312 -1.71875,-4.29687 -3.4375,-5.9375c-1.17187,-1.09375 -2.89063,-1.09375 -4.29687,-0.46875c-2.5,1.09375 -4.14062,3.35937 -6.17187,5.07813c-5.3125,4.76563 -12.03125,8.35938 -19.29688,8.75c-8.4375,0.54688 -17.10937,-4.21875 -20.625,-12.03125c-0.46875,-1.09375 -0.85937,-2.65625 -2.26562,-2.8125c-1.5625,-0.23437 -2.73437,1.01563 -3.59375,2.10938c-4.14062,5.23438 -8.04687,10.85938 -13.51562,14.76563c-3.51562,2.5 -7.73437,4.21875 -12.10937,4.14062c-4.60937,-0.07812 -9.21875,-2.57812 -11.40625,-6.64062c-1.01562,-1.79687 -1.40625,-4.0625 -3.04687,-5.46875c-1.25,-1.09375 -3.20312,-0.9375 -4.53125,-0.07812c-2.03125,1.17188 -3.20312,3.28125 -4.84375,4.92187c-4.53125,4.53125 -11.09375,6.79688 -17.42187,6.17188c-7.65625,-0.78125 -14.60937,-6.09375 -17.42187,-13.28125c-0.39062,-1.01562 -0.9375,-2.1875 -2.03125,-2.5c-0.85938,-0.3125 -1.5625,0.3125 -2.10938,0.85938c-4.21875,3.90625 -8.4375,7.89063 -13.51562,10.625c-5.15625,2.73438 -10.85937,4.53125 -16.71875,4.375c-6.17187,0.07813 -12.34375,-1.79687 -17.34375,-5.3125c-4.21875,-2.89063 -7.57812,-6.95312 -9.53125,-11.71875c-0.54687,-1.25 -1.25,-2.65625 -2.65625,-2.96875c-1.25,-0.3125 -2.34375,0.625 -3.04687,1.5625c-2.10937,2.96875 -4.84375,5.54688 -7.89062,7.5c-4.6875,3.04687 -10.15625,5.15625 -15.85937,5.15625c-4.375,0 -8.75,-1.64062 -11.875,-4.6875c-3.35937,-3.28125 -5.15625,-7.89062 -5.85937,-12.5c-0.85937,-6.01563 0.39063,-12.10937 2.10938,-17.8125c1.09375,-3.75 2.5,-7.34375 3.35938,-11.17187c0.46875,-1.95312 0.625,-4.0625 -0.23437,-5.85937c-0.70312,-1.40625 -2.1875,-2.26562 -3.59375,-2.89062c-1.5625,-0.625 -3.20312,0.23438 -4.29687,1.25c-1.09375,1.01562 -1.64062,2.34375 -2.26562,3.67188c-3.82812,9.21875 -8.98437,17.89062 -15.3125,25.625c-6.09375,7.5 -13.35937,13.98438 -21.17187,19.6875c-8.90625,6.32813 -19.14062,10.9375 -30,12.42187c-7.89063,1.09375 -16.09375,0.46875 -23.75,-1.79687c-4.53125,-1.32813 -8.98437,-3.20312 -12.89062,-5.9375c-6.71875,-4.6875 -12.10937,-11.17187 -15.9375,-18.35937c-2.96875,-5.54688 -5.23437,-11.48438 -6.875,-17.57812c-2.26562,-8.67188 -3.04687,-17.57812 -3.4375,-26.48437v-6.09375c0.15625,-6.5625 0.78125,-13.125 2.10938,-19.53125c2.34375,-11.64062 6.5625,-22.8125 12.26562,-33.20312c4.53125,-8.125 9.92188,-15.78125 16.71875,-22.10937c7.42187,-6.95312 16.40625,-12.34375 26.32813,-14.53125c9.45313,-2.10937 19.60938,-1.5625 28.4375,2.5c2.65625,1.17188 5,2.89063 7.8125,3.75c1.95313,0.625 4.21875,0.39063 5.85938,-0.85937c2.5,-1.95312 3.67188,-5.07812 5.78125,-7.42187c2.65625,-2.89062 6.95313,-4.0625 10.70313,-2.96875c3.51563,1.01563 6.25,4.0625 7.10938,7.57813c0.54688,2.34375 0.23438,4.76563 -0.46875,7.03125c-1.09375,3.20313 -2.89062,6.09375 -4.60937,8.98438c-5.70312,9.84375 -10,20.46875 -12.73437,31.48438c-0.85937,3.35938 -1.5625,6.875 -2.89062,10.07812c-1.25,3.04688 -3.20312,5.9375 -6.01562,7.8125c-2.42187,1.64063 -5.625,2.42188 -8.51562,1.5625c-2.65625,-0.78125 -4.6875,-2.96875 -5.78125,-5.46875c-1.25,-2.65625 -1.64063,-5.70312 -1.25,-8.67187c0.78125,-6.95312 4.60937,-13.28125 4.76563,-20.39062c0.15625,-3.98437 -1.17187,-8.125 -4.29687,-10.70312c-4.375,-3.75 -10.54687,-4.76562 -16.09375,-3.98437c-6.5625,0.85938 -12.73437,3.98438 -17.57812,8.4375c-5.23437,4.84375 -9.14062,10.9375 -12.26562,17.26563c-9.0625,18.125 -13.04687,38.90625 -10.70312,59.0625c0.78125,6.5625 2.34375,13.125 5.46875,19.0625c1.95313,3.75 4.53125,7.10938 7.73437,9.76563c4.14063,3.4375 9.14063,5.78125 14.45313,6.79688c7.57813,1.48438 15.54687,0.46875 22.65625,-2.26562c9.53125,-3.67187 17.8125,-10.23437 24.375,-17.96875c3.51563,-3.98437 6.5625,-8.35937 9.53125,-12.8125c2.96875,-4.14063 6.09375,-8.51562 7.26563,-13.59375c0.78125,-3.35937 0.07813,-6.79687 -0.70312,-10.07812c-0.54687,-4.53125 1.17188,-9.14062 4.14063,-12.5c1.875,-1.95312 4.21875,-3.75 6.95312,-4.29687c2.57813,-0.46875 5.46875,0 7.65625,1.64063c2.42188,1.71875 3.67187,5 2.8125,7.89063c-0.54687,1.875 -1.17187,3.82813 -0.625,5.78125c0.54688,1.64063 2.1875,2.65625 3.82812,2.73438c3.75,0.3125 7.65625,-0.39062 11.25,0.85938c4.21875,1.64063 7.96875,5 9.375,9.45313c0.9375,2.96875 1.25,6.32813 0.3125,9.29688c-1.64062,5.78125 -3.67187,11.48438 -4.76562,17.42187c-0.3125,1.95313 -0.625,3.98438 -0.07813,5.9375c0.3125,1.40625 1.5625,2.65625 3.04688,2.73438c2.57813,0.23437 4.92188,-1.17187 6.71875,-2.89063c3.67188,-3.67188 6.09375,-8.35938 7.8125,-13.20312c2.10938,-5.85937 3.20313,-12.03125 4.76563,-18.04687c1.64063,-6.17187 4.14063,-12.1875 8.04688,-17.26562c5.78125,-7.65625 15.15625,-12.57813 24.84375,-12.34375c5.39063,0.07813 10.70313,2.1875 14.53125,6.09375c3.20313,3.28125 4.92188,7.73437 5.625,12.26562c1.17188,7.65625 -0.23437,15.70313 -3.75,22.65625c-4.84375,9.53125 -14.76562,16.32813 -25.46875,17.1875c-1.5625,0.15625 -3.35938,0.07813 -4.53125,1.25c-1.01562,1.01562 -0.9375,2.57812 -0.78125,3.90625c0.39063,3.59375 1.5625,7.26562 3.98438,10.07812c2.8125,2.89063 7.03125,4.92188 11.17188,3.98438c4.76563,-1.01562 8.82813,-4.0625 12.1875,-7.34375c3.20313,-3.20312 6.01563,-6.79688 8.59375,-10.54687c3.59375,-5.15625 5.78125,-11.09375 7.96875,-16.875c2.10938,-5.70312 4.0625,-11.48437 7.57813,-16.48438c2.8125,-4.21875 6.48438,-7.89062 10.85938,-10.54687c4.84375,-3.04687 10.625,-4.60937 16.40625,-4.29687c1.79687,0.07813 3.82813,0.15625 5.3125,-0.9375c1.32813,-1.01562 1.79688,-2.8125 1.79688,-4.45312c0,-2.96875 0.3125,-5.85937 0.54688,-8.82813c0.39063,-4.60937 0.78125,-9.21875 1.40625,-13.75c1.32813,-11.40625 3.67188,-22.65625 6.71875,-33.67187c1.5625,-5.54688 3.59375,-11.17187 7.10938,-15.85937c1.48438,-2.10937 3.28125,-4.14063 5.625,-5.39062c2.26563,-1.32812 5.15625,-1.25 7.57813,-0.54687c3.125,0.9375 5.15625,3.90625 6.40625,6.71875c2.26563,5.54688 1.64063,11.71875 1.17188,17.57813c-0.625,9.21875 -2.8125,18.28125 -4.6875,27.34375c-1.64062,7.96875 -2.96875,16.01563 -4.45312,23.98438c-2.03125,10.9375 -3.98438,21.95313 -6.01563,32.89063c-1.71875,8.98438 -3.67188,18.125 -2.57812,27.34375c0.3125,2.42188 0.625,5.07813 2.26562,6.95312c1.17188,1.32813 3.125,1.64063 4.6875,1.09375c2.10938,-0.70312 3.59375,-2.57812 4.6875,-4.45313c2.57813,-4.375 4.84375,-8.98437 7.10938,-13.59375c3.28125,-6.40625 6.5625,-13.04688 7.65625,-20.23437c1.71875,-10.9375 2.89063,-22.03125 4.45313,-33.04687c1.25,-8.20312 2.65625,-16.40625 3.98438,-24.53125c1.64063,-10.23437 3.51563,-20.39062 6.40625,-30.3125c1.40625,-4.6875 3.28125,-9.29687 6.5625,-12.96875c2.96875,-2.96875 6.48437,-5.07812 10.39062,-5.46875zM101.4375,49.09375c-1.5625,0.46875 -2.8125,1.71875 -3.82812,2.96875c-2.26562,2.89063 -3.98437,6.17188 -5.15625,9.6875c-1.25,3.75 -2.42187,7.65625 -1.95312,11.5625c0.07813,1.17188 1.25,2.03125 2.34375,2.03125c2.10938,0.07813 3.98438,-1.09375 5.625,-2.34375c3.67188,-2.57812 6.01563,-6.5625 7.65625,-10.625c1.01563,-2.57812 1.71875,-5.39062 1.48438,-8.20312c-0.15625,-1.875 -1.09375,-3.82812 -2.73437,-4.76562c-1.01562,-0.625 -2.34375,-0.70312 -3.4375,-0.3125zM168.39063,57.84375c-4.375,0.78125 -8.28125,3.35938 -11.09375,6.79688c-3.04687,3.67188 -5.15625,8.125 -6.25,12.8125c-1.64062,6.64063 -1.79687,13.67188 0,20.3125c0.54688,2.03125 1.48438,4.0625 3.04688,5.54688c1.01562,1.01562 2.42188,1.5625 3.82812,1.64063c3.67188,0.54688 7.10938,-1.48437 9.92188,-3.59375c3.51563,-2.57812 5.78125,-6.40625 7.1875,-10.46875c0.85938,-2.5 0.3125,-5.15625 0.07813,-7.73437c-0.39062,-5.23437 -0.39062,-10.46875 -0.07812,-15.70312c0.07813,-1.79687 0.625,-3.51562 0.625,-5.3125c0,-1.40625 -0.54688,-2.96875 -1.875,-3.75c-1.64062,-1.01563 -3.59375,-0.85938 -5.39062,-0.54688zM272.84375,151.28125c-3.75,0.23438 -7.5,1.01563 -11.01563,2.5c-3.82812,1.5625 -7.10937,4.45313 -8.75,8.20313c-1.09375,2.34375 -1.5625,5.15625 -0.39062,7.5c1.17188,2.42188 3.35938,4.21875 5.78125,5.3125c3.35938,1.48437 7.10938,1.71875 10.625,1.32813c11.09375,-1.25 21.64063,-6.95312 28.67188,-15.625c1.40625,-1.71875 2.5,-3.67187 3.67188,-5.54687c0.3125,-0.625 0.78125,-1.64062 0.07813,-2.1875c-0.85937,-0.625 -1.95312,-0.39062 -2.89062,-0.39062c-3.98438,-0.23437 -7.96875,-0.625 -11.95312,-0.78125c-4.60937,-0.23437 -9.21875,-0.625 -13.82812,-0.3125z" fill="#000000"/></g></g></svg>