<svg fill="currentColor" strokeLinecap="round" strokeLinejoin="round" strokeWidth="2" className="w-6 h-6" viewBox="0 0 24 24">
                <path xmlns="http://www.w3.org/2000/svg" d="M15.995 0.682C10.644 2.902 0.1 14.865 0 19.15v5.258C0 29.903 6.23 35.386 11.887 35.386c6.792 0 12.452-5.627 12.453-12.313 0 6.686 5.466 12.313 12.252 12.313 6.786 0 12.09-5.627 12.09-12.313 0 6.686 5.797 12.313 12.583 12.313h0.121c6.786 0 12.584-5.627 12.584-12.313 0 6.686 5.279 12.313 11.887 12.313 5.608 0 11.888-5.769 11.888-12.4v-5.237c-0.1-3.286-10.644-15.248-15.995-18.47-9.183-6.903-33.35-6.686-61.348-6.682zM50.514 43.111a12.35 12.35 0 0 1-2.108 2.71c-2.84 2.782-6.708 4.51-11.015 4.51a12.446 12.446 0 0 1-8.73-4.514c-0.721-0.708-1.268-1.469-1.77-2.363l-0.002 0.001c-0.5 0.887-1.198 1.647-1.922 2.355a12.465 12.465 0 0 1-8.731 4.505c-0.285 0-0.582-0.078-0.82-0.161-0.332 3.448-0.472 6.741-0.522 9.134l-0.001 0.186c-0.006 1.564-0.01 2.84-0.015 4.61 0.053 10.514-0.598 34.05 2.662 39.717 5.055 2.349 14.396 3.433 23.777 3.438h0.002c9.381-0.005 18.722-1.089 23.777-3.438 3.266-5.668 2.715-29.203 2.662-39.717-0.004-1.77-0.009-3.046-0.015-4.61l-0.001-0.186c-0.05-2.393-0.19-5.686-0.522-9.134-0.238 0.083-0.536 0.161-0.82 0.161a12.465 12.465 0 0 1-8.731-4.505c-0.724-0.708-1.422-1.468-1.922-2.355l-0.002-0.001c-0.501 0.894-1.049 1.655-1.77 2.363a12.446 12.446 0 0 1-8.731 4.514c-4.307 0-8.175-1.728-11.015-4.51a12.35 12.35 0 0 1-2.108-2.71 12.32 12.32 0 0 1-2.086 2.71 12.446 12.446 0 0 1-8.732 4.514c-0.161 0-0.322-0.007-0.484-0.015h-0.003c-0.162 0.008-0.323 0.015-0.485 0.015a12.446 12.446 0 0 1-8.732-4.514 12.32 12.32 0 0 1-2.086-2.71z" color="#000"/>
                </svg>