<svg version="1.1" xmlns="http://www.w3.org/2000/svg" xmlns:xlink="http://www.w3.org/1999/xlink" width="22.3153" height="15.67612" viewBox="0,0,22.3153,15.67612"><g transform="translate(-228.84236,-172.16195)"><g data-paper-data="{&quot;isPaintingLayer&quot;:true}" fill="#000000" fill-rule="nonzero" stroke="none" stroke-width="1" stroke-linecap="butt" stroke-linejoin="miter" stroke-miterlimit="10" stroke-dasharray="" stroke-dashoffset="0" style="mix-blend-mode: normal"><path d="M240.07183,172.16195h0.12413c1.14653,0.00419 6.95585,0.04602 8.5222,0.46725c0.96365,0.26162 1.71542,1.01603 1.97363,1.98061c0.14088,0.53002 0.2399,1.23161 0.30686,1.9555l0.01395,0.14506l0.03069,0.36264l0.01116,0.14506c0.09066,1.27484 0.10182,2.46878 0.10322,2.72962v0.10461c-0.0014,0.27059 -0.01395,1.54543 -0.11437,2.87327l-0.01116,0.14645l-0.01255,0.14506c-0.06974,0.79782 -0.17295,1.59007 -0.32778,2.17309c-0.25822,0.96457 -1.00999,1.71899 -1.97363,1.98061c-1.61796,0.43518 -7.76762,0.46586 -8.61983,0.46725h-0.19806c-0.43099,0 -2.21354,-0.00837 -4.08257,-0.07253l-0.23711,-0.00837l-0.12134,-0.00558l-0.23851,-0.00976l-0.23851,-0.00976c-1.54822,-0.06835 -3.02252,-0.17853 -3.70179,-0.36264c-0.9633,-0.26137 -1.71499,-1.01519 -1.97363,-1.97922c-0.15482,-0.58163 -0.25804,-1.37527 -0.32778,-2.17309l-0.01116,-0.14645l-0.01116,-0.14506c-0.06924,-0.94508 -0.10738,-1.89221 -0.11437,-2.8398v-0.17156c0.00279,-0.29988 0.01395,-1.33622 0.08927,-2.47994l0.00976,-0.14367l0.00419,-0.07253l0.01116,-0.14506l0.03069,-0.36264l0.01395,-0.14506c0.06695,-0.7239 0.16598,-1.42688 0.30686,-1.9555c0.25822,-0.96457 1.00999,-1.71899 1.97363,-1.98061c0.67926,-0.18133 2.15356,-0.29291 3.70179,-0.36264l0.23711,-0.00976l0.2399,-0.00837l0.11996,-0.00419l0.23851,-0.00976c1.32744,-0.04268 2.65543,-0.0664 3.98354,-0.07113zM237.76902,176.63924v6.72012l5.79817,-3.35867z"/></g></g></svg>